<svg xmlns="http://www.w3.org/2000/svg" version="1.1" xmlns:xlink="http://www.w3.org/1999/xlink" xmlns:svgjs="http://svgjs.dev/svgjs" viewBox="0 0 800 800"><defs><linearGradient x1="50%" y1="0%" x2="50%" y2="100%" id="ccchaos-grad"><stop stop-color="hsl(206, 75%, 49%)" stop-opacity="1" offset="0%"></stop><stop stop-color="hsl(331, 90%, 56%)" stop-opacity="1" offset="100%"></stop></linearGradient></defs><g stroke-width="2" stroke="url(#ccchaos-grad)" fill="none" stroke-linecap="round"><path d="M374.57 115.65C383.84 119.47 393.13 123.47 402.43 127.45 411.75 130.83 421.11 133.96 430.51 136.76 439.97 138.73 449.5 140.36 459.13 141.7 468.86 142.33 478.73 142.84 488.75 143.35 498.93 143.5 509.3 143.92 519.85 144.73 530.6 145.58 541.55 147.08 552.67 149.29 563.95 151.86 575.37 155.29 586.85 159.57 598.38 164.38 609.85 170.07 621.15 176.57 632.29 183.6 643.06 191.37 653.28 199.78 663.05 208.61 672.02 217.97 680.03 227.74 687.25 237.78 693.27 248.13 697.92 258.69 701.57 269.39 703.72 280.22 704.31 291.09 703.88 302.04 701.94 312.98 698.57 323.88 694.47 334.81 689.23 345.68 683.03 356.44 676.71 367.22 669.91 377.9 662.9 388.43 656.54 398.98 650.49 409.38 645.03 419.6 640.88 429.81 637.74 439.56 635.66 448.83 635.08 458.06 635.48 466.76 636.77 474.89 639.27 482.94 642.33 490.36 645.73 497.12 649.81 503.76 653.79 509.7 657.46 514.92 665.63 527.9 666.09 542.33 661.36 546.5 657.1 549.89 651.72 553.57 645.34 557.76 638.35 562.99 630.5 569.03 621.91 576.05 612.91 584.37 603.33 593.79 593.32 604.31 583.07 615.99 572.51 628.54 561.77 641.73 550.93 655.38 539.99 669.03 529.03 682.23 518.07 694.74 507.13 705.93 496.28 715.29 485.47 722.79 474.75 727.76 464.17 729.9 453.63 729.6 443.22 726.39 432.97 720.37 422.74 712.47 412.64 702.49 402.71 690.97 392.77 679.17 383.2 667.39 373.99 656.28 364.76 646.66 355.86 638.61 347.3 632.42 338.68 628.57 330.37 626.71 322.36 626.68 314.27 628.73 306.44 632.07 298.88 636.27 291.2 641.53 283.75 646.82 276.52 651.73 269.13 656.53 261.93 660.24 254.89 662.61 247.67 664.06 240.6 663.83 233.66 661.9 226.51 658.76 219.49 653.94 212.59 647.61 205.49 640.2 198.52 631.53 191.7 621.83 184.72 611.42 177.92 600.3 171.34 588.68 164.66 576.72 158.26 564.53 152.17 552.27 146.09 539.94 140.38 527.69 135.12 515.63 129.97 503.62 125.32 491.86 121.23 480.39 117.33 469.01 114.05 457.91 111.42 447.12 109.05 436.4 107.37 425.95 106.4 415.78 105.71 405.64 105.73 395.74 106.49 386.11 107.49 376.48 109.16 367.31 111.45 358.6 113.89 349.88 116.87 341.6 120.35 333.77 123.86 325.91 127.78 318.49 132.07 311.5 136.27 304.45 140.78 297.81 145.54 291.57 150.12 285.21 154.9 279.19 159.87 273.46 164.59 267.54 169.47 261.82 174.49 256.26 179.26 250.38 184.17 244.53 189.24 238.68 194.06 232.37 199.07 225.95 204.27 219.38 209.28 212.29 214.51 205 219.99 197.52 225.34 189.57 230.97 181.49 236.88 173.34 242.72 164.95 248.88 156.66 255.35 148.61 261.79 140.67 268.57 133.22 275.66 126.45 282.74 120.16 290.15 114.79 297.85 110.49 305.56 106.95 313.57 104.61 321.85 103.51 330.13 103.2 338.68 104.06 347.47 106.03 356.26 108.47 365.3 111.73 374.56 115.64" stroke-dasharray="3 2" transform="rotate(0, 400, 400)" opacity="0.28"></path><path d="M377.85 126.71C386.83 130.53 395.89 134.53 404.99 138.53 414.11 141.95 423.31 145.15 432.59 148.05 441.92 150.16 451.36 151.94 460.92 153.42 470.57 154.2 480.37 154.84 490.31 155.43 500.39 155.61 510.64 155.99 521.06 156.67 531.61 157.32 542.32 158.5 553.15 160.3 564.07 162.38 575.06 165.22 586.03 168.83 596.98 172.9 607.79 177.79 618.35 183.46 628.68 189.62 638.58 196.51 647.88 204.04 656.7 212 664.71 220.51 671.75 229.47 678.04 238.74 683.17 248.36 687.01 258.23 689.93 268.29 691.47 278.53 691.58 288.85 690.8 299.28 688.67 309.75 685.24 320.19 681.21 330.69 676.17 341.13 670.28 351.47 664.33 361.84 657.96 372.09 651.42 382.18 645.48 392.28 639.82 402.2 634.67 411.89 630.72 421.59 627.66 430.79 625.54 439.48 624.78 448.14 624.91 456.26 625.83 463.8 627.89 471.28 630.46 478.16 633.38 484.41 636.96 490.58 640.51 496.12 643.82 501.04 651.68 513.85 653.47 529.91 649.75 535.29 646.29 539.58 641.79 544.27 636.31 549.53 630.29 555.77 623.4 562.82 615.78 570.78 607.75 579.86 599.12 589.9 590 600.85 580.63 612.7 570.9 625.19 560.91 638.07 550.8 651.17 540.52 664.06 530.17 676.33 519.78 687.79 509.36 697.87 498.98 706.14 488.6 712.62 478.29 716.71 468.07 718.17 457.88 717.41 447.79 714 437.84 708.03 427.9 700.38 418.07 690.85 408.39 679.9 398.7 668.71 389.37 657.48 380.37 646.81 371.35 637.44 362.64 629.44 354.24 623.07 345.8 618.82 337.64 616.35 329.75 615.57 321.79 616.74 314.07 619.17 306.59 622.51 298.99 626.97 291.6 631.63 284.41 636.11 277.07 640.7 269.89 644.46 262.87 647.16 255.67 649.19 248.61 649.78 241.67 648.89 234.55 646.97 227.54 643.52 220.66 638.63 213.6 632.76 206.68 625.63 199.91 617.43 193 608.5 186.28 598.76 179.78 588.41 173.22 577.65 166.93 566.51 160.95 555.17 155 543.67 149.44 532.12 144.3 520.65 139.29 509.15 134.78 497.81 130.81 486.69 127.04 475.62 123.88 464.78 121.35 454.22 119.08 443.71 117.49 433.46 116.59 423.5 115.97 413.56 116.05 403.88 116.85 394.48 117.89 385.08 119.58 376.15 121.88 367.7 124.32 359.22 127.3 351.19 130.76 343.59 134.26 335.95 138.16 328.73 142.42 321.91 146.6 315 151.08 308.46 155.81 302.26 160.37 295.91 165.13 289.84 170.07 284 174.78 277.93 179.64 272.01 184.63 266.18 189.38 260.01 194.27 253.84 199.3 247.62 204.09 240.97 209.05 234.19 214.17 227.25 219.1 219.86 224.23 212.3 229.58 204.58 234.79 196.49 240.25 188.32 245.96 180.16 251.59 171.85 257.5 163.71 263.71 155.89 269.86 148.23 276.33 141.13 283.09 134.73 289.83 128.85 296.89 123.89 304.24 119.98 311.57 116.81 319.21 114.8 327.13 113.98 335.04 113.9 343.23 114.93 351.69 117 360.14 119.51 368.86 122.79 377.84 126.71" stroke-dasharray="11 7" transform="rotate(4.04, 400, 400)" opacity="0.72"></path><path d="M382.01 137.77C390.73 141.58 399.54 145.57 408.44 149.56 417.36 153.03 426.38 156.29 435.5 159.28 444.67 161.52 453.98 163.45 463.4 165.09 472.9 166.04 482.55 166.82 492.34 167.52 502.24 167.77 512.28 168.16 522.45 168.77 532.71 169.28 543.08 170.22 553.51 171.7 563.97 173.34 574.43 175.67 584.8 178.69 595.09 182.07 605.18 186.22 614.94 191.1 624.43 196.41 633.44 202.43 641.82 209.09 649.7 216.14 656.77 223.77 662.89 231.87 668.31 240.29 672.62 249.1 675.71 258.2 677.99 267.52 678.99 277.06 678.69 286.72 677.62 296.53 675.34 306.4 671.91 316.28 667.98 326.24 663.16 336.16 657.59 345.99 652.02 355.86 646.07 365.61 639.97 375.2 634.44 384.8 629.16 394.21 624.32 403.38 620.56 412.55 617.58 421.23 615.44 429.4 614.53 437.55 614.4 445.17 614.99 452.24 616.63 459.26 618.75 465.73 621.2 471.63 625.86 480.16 634.85 494.65 638.26 500.85 640.67 506.99 640.48 519.11 637.63 525.77 634.86 530.95 631.13 536.6 626.48 542.83 621.34 549.97 615.37 557.87 608.67 566.57 601.58 576.23 593.86 586.68 585.64 597.84 577.15 609.66 568.25 621.91 559.05 634.32 549.71 646.75 540.14 658.79 530.44 670.07 520.68 680.47 510.83 689.46 500.97 696.67 491.1 702.19 481.24 705.46 471.44 706.31 461.65 705.15 451.92 701.57 442.29 695.69 432.68 688.31 423.15 679.23 413.74 668.84 404.32 658.23 395.22 647.55 386.44 637.32 377.63 628.24 369.11 620.33 360.87 613.84 352.59 609.23 344.57 606.23 336.8 604.77 328.95 605.12 321.32 606.68 313.91 609.17 306.39 612.8 299.06 616.77 291.89 620.72 284.6 624.96 277.45 628.62 270.44 631.44 263.28 633.83 256.23 635.04 249.31 634.96 242.22 634.06 235.24 631.78 228.4 628.18 221.4 623.71 214.54 618.02 207.83 611.25 201.03 603.79 194.41 595.45 188.01 586.43 181.58 576.94 175.42 566.98 169.58 556.69 163.79 546.17 158.38 535.49 153.39 524.77 148.54 513.96 144.17 503.22 140.34 492.6 136.72 481.99 133.68 471.55 131.26 461.34 129.11 451.16 127.61 441.2 126.79 431.5 126.24 421.82 126.37 412.39 127.2 403.22 128.28 394.06 129.98 385.36 132.28 377.1 134.72 368.83 137.69 360.98 141.11 353.54 144.59 346.05 148.46 338.93 152.67 332.17 156.83 325.32 161.27 318.78 165.95 312.52 170.49 306.1 175.23 299.89 180.13 293.85 184.83 287.58 189.67 281.39 194.65 275.25 199.39 268.77 204.26 262.26 209.26 255.68 214.03 248.7 218.95 241.6 224.02 234.35 228.89 226.72 233.95 218.95 239.2 211.08 244.3 202.92 249.63 194.76 255.19 186.66 260.64 178.51 266.36 170.59 272.34 163.05 278.26 155.75 284.46 149.03 290.96 143.04 297.4 137.59 304.15 133.06 311.19 129.55 318.21 126.76 325.52 125.07 333.11 124.52 340.69 124.65 348.56 125.84 356.71 128.01 364.86 130.57 373.29 133.87 382 137.77" stroke-dasharray="1 4" transform="rotate(8.08, 400, 400)" opacity="0.53"></path><path d="M386.89 148.84C395.35 152.63 403.92 156.59 412.59 160.57 421.29 164.06 430.11 167.38 439.04 170.44 448.01 172.82 457.12 174.9 466.35 176.69 475.64 177.82 485.07 178.77 494.62 179.6 504.24 179.97 513.99 180.41 523.81 181.01 533.69 181.43 543.63 182.22 553.56 183.43 563.48 184.74 573.34 186.63 583.04 189.13 592.61 191.91 601.92 195.38 610.85 199.53 619.49 204.04 627.6 209.22 635.06 215.03 642.04 221.2 648.22 227.93 653.47 235.16 658.07 242.69 661.62 250.63 664.05 258.91 665.75 267.41 666.29 276.17 665.66 285.1 664.36 294.18 661.98 303.37 658.59 312.6 654.79 321.92 650.2 331.24 644.97 340.49 639.76 349.79 634.23 358.99 628.56 368.03 623.43 377.1 618.51 385.99 613.96 394.64 610.4 403.29 607.51 411.48 605.36 419.19 604.31 426.88 603.96 434.09 604.25 440.79 605.49 447.48 607.19 453.67 609.19 459.37 613.17 467.72 621.11 482.44 624.26 489.11 626.66 495.93 627.19 510.07 625.04 517.99 622.87 524.02 619.81 530.52 615.91 537.61 611.56 545.49 606.43 554.05 600.58 563.3 594.38 573.33 587.55 583.98 580.19 595.14 572.57 606.76 564.51 618.59 556.1 630.4 547.54 642.05 538.72 653.18 529.7 663.44 520.6 672.77 511.38 680.7 502.08 686.9 492.76 691.52 483.4 694.04 474.05 694.33 464.7 692.82 455.38 689.13 446.12 683.34 436.86 676.25 427.66 667.61 418.54 657.78 409.41 647.74 400.57 637.61 392 627.83 383.42 619.04 375.09 611.25 367.02 604.7 358.91 599.82 351.02 596.35 343.36 594.28 335.63 593.87 328.09 594.61 320.75 596.26 313.31 599.07 306.03 602.29 298.9 605.65 291.66 609.42 284.54 612.82 277.56 615.61 270.44 618.16 263.42 619.75 256.53 620.28 249.5 620.18 242.58 618.87 235.79 616.37 228.87 613.12 222.09 608.73 215.48 603.31 208.8 597.23 202.3 590.26 196.04 582.55 189.76 574.38 183.75 565.64 178.07 556.48 172.46 547.05 167.21 537.36 162.39 527.51 157.71 517.54 153.51 507.52 149.83 497.54 146.37 487.53 143.47 477.62 141.17 467.86 139.14 458.11 137.73 448.53 136.99 439.16 136.51 429.81 136.7 420.66 137.56 411.75 138.66 402.83 140.37 394.34 142.65 386.27 145.08 378.17 148.02 370.46 151.4 363.11 154.84 355.71 158.67 348.64 162.83 341.87 166.95 335 171.34 328.39 175.98 322 180.48 315.44 185.19 309.04 190.06 302.76 194.74 296.24 199.56 289.77 204.51 283.3 209.25 276.53 214.11 269.7 219.08 262.79 223.84 255.53 228.74 248.16 233.77 240.67 238.62 232.87 243.62 224.98 248.8 217.05 253.82 208.91 259.05 200.83 264.48 192.9 269.8 184.97 275.36 177.35 281.17 170.16 286.89 163.25 292.88 156.96 299.14 151.42 305.35 146.41 311.84 142.31 318.61 139.21 325.34 136.79 332.36 135.42 339.67 135.13 346.96 135.47 354.54 136.8 362.41 139.05 370.27 141.66 378.42 144.97 386.88 148.83" stroke-dasharray="7 1" transform="rotate(12.12, 400, 400)" opacity="0.70"></path><path d="M392.29 159.9C400.49 163.65 408.81 167.58 417.25 171.54 425.7 175.05 434.28 178.41 442.98 181.54 451.71 184.04 460.57 186.26 469.54 188.21 478.56 189.53 487.7 190.65 496.92 191.64 506.2 192.15 515.55 192.69 524.95 193.32 534.37 193.73 543.79 194.42 553.15 195.45 562.46 196.5 571.65 198.04 580.62 200.11 589.44 202.38 597.94 205.26 606.03 208.75 613.8 212.53 621.04 216.94 627.61 221.94 633.72 227.25 639.05 233.12 643.5 239.48 647.35 246.12 650.22 253.19 652.06 260.61 653.26 268.25 653.41 276.18 652.5 284.32 651.04 292.62 648.61 301.06 645.29 309.59 641.65 318.21 637.31 326.86 632.41 335.48 627.57 344.16 622.44 352.76 617.19 361.25 612.44 369.75 607.86 378.1 603.6 386.26 600.23 394.41 597.44 402.15 595.29 409.46 594.13 416.77 593.58 423.64 593.59 430.08 594.48 436.52 595.78 442.55 597.36 448.19 600.68 456.53 607.55 471.85 610.38 479.13 612.67 486.72 613.67 502.9 612.08 511.98 610.41 518.73 607.92 525.97 604.66 533.74 601.03 542.18 596.65 551.21 591.59 560.8 586.2 570.99 580.2 581.63 573.66 592.6 566.88 603.84 559.64 615.12 552.02 626.21 544.25 637.01 536.17 647.17 527.85 656.4 519.44 664.68 510.86 671.58 502.16 676.83 493.42 680.6 484.6 682.44 475.74 682.24 466.88 680.44 457.99 676.66 449.12 671 440.25 664.2 431.41 656 422.6 646.71 413.79 637.24 405.22 627.64 396.88 618.32 388.54 609.85 380.42 602.22 372.51 595.65 364.58 590.55 356.84 586.7 349.29 584.08 341.69 582.99 334.25 582.96 326.98 583.82 319.63 585.8 312.42 588.27 305.34 590.97 298.16 594.19 291.1 597.21 284.16 599.8 277.1 602.34 270.15 604.13 263.31 605.05 256.36 605.52 249.52 604.97 242.81 603.36 236 601.15 229.34 597.9 222.85 593.67 216.31 588.86 209.96 583.17 203.86 576.72 197.75 569.83 191.93 562.32 186.43 554.32 181.01 546.03 175.95 537.38 171.32 528.49 166.83 519.45 162.81 510.26 159.3 501.02 156 491.72 153.25 482.43 151.08 473.22 149.17 463.99 147.87 454.87 147.2 445.89 146.8 436.92 147.03 428.11 147.92 419.47 149.03 410.83 150.74 402.56 153 394.65 155.41 386.71 158.3 379.11 161.64 371.82 165.03 364.47 168.79 357.4 172.89 350.58 176.95 343.65 181.29 336.92 185.87 330.37 190.33 323.65 194.99 317.04 199.82 310.5 204.47 303.74 209.27 296.99 214.2 290.22 218.92 283.19 223.77 276.08 228.73 268.9 233.48 261.43 238.36 253.87 243.37 246.24 248.19 238.36 253.16 230.44 258.28 222.54 263.25 214.52 268.41 206.61 273.74 198.91 278.96 191.3 284.4 184.04 290.06 177.25 295.63 170.78 301.45 164.95 307.51 159.87 313.51 155.33 319.78 151.67 326.32 148.97 332.82 146.92 339.59 145.86 346.65 145.82 353.67 146.35 360.99 147.81 368.6 150.13 376.19 152.77 384.08 156.07 392.28 159.9" stroke-dasharray="10 7" transform="rotate(16.16, 400, 400)" opacity="0.64"></path><path d="M398 170.97C405.93 174.67 414 178.55 422.17 182.47 430.35 185.98 438.66 189.37 447.08 192.57 455.52 195.17 464.08 197.53 472.73 199.64 481.41 201.14 490.19 202.45 499.02 203.61 507.87 204.3 516.77 204.96 525.67 205.68 534.55 206.13 543.39 206.79 552.12 207.72 560.77 208.59 569.24 209.87 577.46 211.6 585.5 213.45 593.18 215.83 600.42 218.75 607.36 221.89 613.74 225.6 619.46 229.86 624.76 234.38 629.3 239.43 633 244.96 636.17 250.73 638.45 256.94 639.77 263.52 640.54 270.3 640.37 277.39 639.25 284.72 637.67 292.2 635.24 299.87 632.01 307.65 628.55 315.53 624.48 323.49 619.91 331.45 615.43 339.47 610.7 347.46 605.85 355.37 601.47 363.31 597.23 371.14 593.25 378.81 590.06 386.49 587.38 393.82 585.24 400.8 583.98 407.77 583.26 414.38 583.03 420.65 583.59 426.93 584.51 432.89 585.71 438.56 588.4 447.02 594.17 463.16 596.65 471.12 598.22 476.67 599.29 482.32 599.8 488.11 600.15 494.32 599.84 500.8 598.83 507.64 597.55 514.99 595.54 522.79 592.83 531.06 589.81 539.87 586.1 549.16 581.74 558.88 577.1 569.03 571.86 579.48 566.09 590.09 560.1 600.8 553.65 611.41 546.79 621.68 539.78 631.56 532.44 640.73 524.82 648.93 517.11 656.19 509.19 662.1 501.1 666.45 492.96 669.45 484.7 670.68 476.36 670.04 468.01 668 459.59 664.17 451.14 658.67 442.69 652.17 434.22 644.4 425.76 635.65 417.29 626.73 409.01 617.66 400.94 608.8 392.85 600.66 384.95 593.23 377.23 586.69 369.49 581.43 361.91 577.26 354.49 574.18 347.03 572.47 339.71 571.74 332.54 571.85 325.29 573.03 318.17 574.74 311.17 576.75 304.08 579.35 297.1 581.89 290.23 584.17 283.26 586.54 276.39 588.34 269.64 589.46 262.8 590.3 256.07 590.28 249.47 589.36 242.8 587.98 236.29 585.67 229.95 582.46 223.58 578.77 217.41 574.23 211.48 568.95 205.58 563.26 199.96 556.93 194.66 550.06 189.45 542.9 184.61 535.32 180.17 527.42 175.89 519.35 172.07 511.06 168.73 502.62 165.61 494.11 163.02 485.52 160.99 476.92 159.21 468.3 158.01 459.7 157.42 451.17 157.09 442.64 157.37 434.2 158.27 425.86 159.4 417.53 161.1 409.49 163.33 401.74 165.7 393.97 168.54 386.47 171.81 379.23 175.14 371.92 178.84 364.84 182.85 357.94 186.85 350.95 191.12 344.1 195.62 337.37 200.03 330.5 204.64 323.68 209.41 316.91 214.03 309.94 218.8 302.96 223.68 295.94 228.39 288.7 233.22 281.4 238.16 274.03 242.91 266.44 247.78 258.78 252.76 251.09 257.57 243.24 262.51 235.39 267.6 227.62 272.53 219.81 277.62 212.17 282.89 204.78 288.03 197.55 293.37 190.71 298.91 184.36 304.36 178.38 310.03 173.04 315.94 168.44 321.77 164.37 327.86 161.16 334.19 158.85 340.48 157.16 347.03 156.4 353.86 156.58 360.65 157.3 367.72 158.87 375.08 161.25 382.42 163.91 390.05 167.18 397.99 170.96" stroke-dasharray="2 4" transform="rotate(20.200000000000003, 400, 400)" opacity="0.44"></path><path d="M403.79 182.03C411.45 185.68 419.23 189.5 427.11 193.37 435 196.87 443.01 200.28 451.1 203.52 459.21 206.22 467.42 208.7 475.69 210.96 483.98 212.64 492.33 214.14 500.7 215.49 509.08 216.36 517.46 217.19 525.79 218.03 534.09 218.57 542.29 219.26 550.35 220.15 558.3 220.93 566.03 222.04 573.48 223.51 580.73 225.04 587.61 227.02 594.02 229.46 600.14 232.07 605.7 235.18 610.64 238.78 617.08 244.75 625.46 259.32 627.22 267.78 627.63 273.72 627.2 279.99 625.93 286.53 624.28 293.2 621.88 300.08 618.79 307.13 615.53 314.26 611.73 321.51 607.49 328.81 603.37 336.16 599.02 343.54 594.56 350.89 590.52 358.26 586.6 365.58 582.89 372.81 579.89 380.05 577.31 387.01 575.2 393.7 573.87 400.38 573 406.8 572.55 412.96 572.82 419.15 573.4 425.1 574.23 430.86 575.6 436.69 577.05 442.38 578.49 447.96 580.24 453.71 581.8 459.43 583.1 465.2 584.48 471.22 585.45 477.38 585.94 483.74 586.33 490.47 586.16 497.49 585.39 504.84 584.4 512.63 582.78 520.8 580.53 529.37 578.02 538.36 574.88 547.71 571.14 557.35 567.16 567.27 562.61 577.35 557.55 587.45 552.29 597.51 546.57 607.34 540.43 616.73 534.16 625.66 527.53 633.83 520.6 641.01 513.58 647.28 506.31 652.26 498.84 655.78 491.32 658.08 483.63 658.75 475.82 657.75 467.99 655.51 460.06 651.67 452.06 646.34 444.06 640.15 435.99 632.82 427.89 624.59 419.78 616.2 411.83 607.66 404.03 599.26 396.22 591.48 388.56 584.26 381.06 577.8 373.53 572.44 366.13 568.02 358.88 564.55 351.58 562.3 344.4 560.94 337.35 560.36 330.24 560.79 323.23 561.75 316.33 563.07 309.36 565.01 302.49 566.99 295.72 568.85 288.88 570.92 282.13 572.58 275.5 573.72 268.8 574.73 262.21 575.05 255.77 574.61 249.27 573.85 242.93 572.28 236.77 569.9 230.61 567.14 224.65 563.6 218.93 559.35 213.26 554.74 207.87 549.49 202.79 543.69 197.81 537.61 193.2 531.07 188.98 524.15 184.92 517.07 181.3 509.68 178.16 502.08 175.22 494.39 172.79 486.54 170.9 478.6 169.25 470.63 168.16 462.6 167.65 454.57 167.39 446.53 167.71 438.49 168.63 430.49 169.76 422.49 171.44 414.71 173.63 407.14 175.96 399.56 178.74 392.18 181.92 384.98 185.18 377.74 188.79 370.64 192.72 363.69 196.64 356.65 200.82 349.7 205.24 342.82 209.58 335.82 214.11 328.85 218.81 321.89 223.39 314.77 228.11 307.62 232.95 300.44 237.63 293.08 242.43 285.67 247.34 278.21 252.08 270.6 256.93 262.96 261.89 255.32 266.68 247.59 271.61 239.92 276.65 232.38 281.56 224.87 286.61 217.57 291.81 210.58 296.9 203.78 302.16 197.41 307.6 191.56 312.95 186.09 318.5 181.25 324.26 177.15 329.96 173.55 335.88 170.77 342.04 168.86 348.14 167.51 354.5 167.03 361.11 167.43 367.68 168.31 374.53 169.98 381.64 172.4 388.73 175.07 396.11 178.31 403.78 182.02" stroke-dasharray="3 10" transform="rotate(24.24, 400, 400)" opacity="0.73"></path><path d="M409.42 193.09C416.8 196.67 424.28 200.42 431.84 204.23 439.41 207.71 447.07 211.12 454.8 214.39 462.54 217.17 470.34 219.77 478.19 222.16 486.04 224.02 493.91 225.71 501.77 227.24 509.62 228.32 517.44 229.33 525.16 230.33 532.83 231 540.37 231.77 547.72 232.69 554.96 233.44 561.95 234.46 568.62 235.77 578.14 237.91 594.55 244.3 601.14 248.67 606.56 253.69 613.27 266.16 614.43 273.5 614.55 278.66 613.92 284.15 612.55 289.93 610.88 295.82 608.56 301.95 605.62 308.28 602.57 314.68 599.04 321.24 595.14 327.9 591.36 334.6 587.38 341.38 583.29 348.19 579.6 355.01 575.98 361.85 572.53 368.67 569.71 375.48 567.25 382.12 565.17 388.56 563.79 395 562.79 401.27 562.15 407.36 562.16 413.48 562.44 419.47 562.93 425.35 563.93 431.3 565.01 437.2 566.09 443.08 567.48 449.11 568.73 455.19 569.77 461.37 570.93 467.78 571.75 474.37 572.17 481.17 572.55 488.29 572.44 495.68 571.82 503.38 571.05 511.42 569.72 519.78 567.83 528.44 565.74 537.41 563.09 546.62 559.88 556.01 556.47 565.53 552.54 575.09 548.11 584.55 543.51 593.86 538.46 602.84 533 611.3 527.41 619.26 521.46 626.43 515.19 632.62 508.84 637.95 502.21 642.07 495.35 644.82 488.44 646.49 481.33 646.68 474.06 645.36 466.77 642.97 459.35 639.16 451.81 634.02 444.27 628.14 436.63 621.24 428.91 613.52 421.19 605.67 413.58 597.64 406.08 589.7 398.58 582.28 391.2 575.32 383.92 568.98 376.64 563.58 369.46 558.97 362.39 555.19 355.28 552.48 348.28 550.56 341.38 549.35 334.43 549.08 327.58 549.32 320.81 549.95 314 551.21 307.28 552.6 300.65 553.97 293.97 555.62 287.38 557.02 280.9 558.04 274.38 559.04 267.98 559.5 261.72 559.36 255.43 559.01 249.3 557.97 243.36 556.24 237.43 554.21 231.7 551.49 226.22 548.1 220.8 544.43 215.66 540.14 210.83 535.29 206.1 530.21 201.73 524.64 197.75 518.65 193.92 512.5 190.51 506.01 187.57 499.23 184.82 492.36 182.56 485.27 180.82 478.02 179.31 470.72 178.32 463.29 177.9 455.78 177.7 448.26 178.06 440.67 178.98 433.04 180.12 425.41 181.77 417.91 183.91 410.56 186.18 403.19 188.89 395.95 191.99 388.84 195.16 381.68 198.68 374.62 202.5 367.64 206.32 360.59 210.41 353.59 214.72 346.63 218.97 339.57 223.42 332.5 228.04 325.44 232.55 318.24 237.2 311.02 241.98 303.77 246.62 296.39 251.39 288.97 256.25 281.54 260.96 274.01 265.79 266.49 270.71 259.02 275.49 251.53 280.39 244.13 285.4 236.91 290.27 229.78 295.28 222.91 300.43 216.37 305.47 210.07 310.66 204.21 316.01 198.89 321.28 193.94 326.73 189.63 332.36 186.02 337.93 182.9 343.71 180.55 349.7 179.01 355.64 177.98 361.81 177.77 368.21 178.37 374.58 179.39 381.2 181.15 388.07 183.59 394.92 186.26 402.04 189.45 409.41 193.09" stroke-dasharray="4 3" transform="rotate(28.28, 400, 400)" opacity="0.92"></path><path d="M414.68 204.16C421.76 207.65 428.92 211.32 436.13 215.05 443.35 218.5 450.64 221.89 457.96 225.18 465.29 228.03 472.66 230.72 480.03 233.23 487.4 235.26 494.76 237.12 502.07 238.84 509.35 240.13 516.57 241.34 523.65 242.51 530.68 243.35 537.54 244.24 544.18 245.24 550.7 246.04 556.95 247.04 562.86 248.28 571.26 250.18 585.46 255.68 591.03 259.41 595.54 263.66 600.79 274.32 601.46 280.66 600.97 287.51 596.39 302.88 592.52 311.25 589.68 316.97 586.44 322.87 582.87 328.93 579.42 335.01 575.8 341.22 572.07 347.53 568.69 353.84 565.37 360.22 562.18 366.66 559.54 373.09 557.19 379.42 555.15 385.64 553.74 391.87 552.64 398 551.84 404.05 551.61 410.13 551.62 416.15 551.81 422.14 552.46 428.2 553.19 434.29 553.94 440.41 554.98 446.67 555.92 453.03 556.7 459.52 557.61 466.22 558.25 473.11 558.56 480.21 558.87 487.56 558.77 495.16 558.23 503.01 557.61 511.11 556.49 519.47 554.88 528.03 553.12 536.79 550.86 545.68 548.09 554.64 545.17 563.63 541.76 572.54 537.89 581.25 533.88 589.74 529.43 597.81 524.59 605.33 519.63 612.32 514.31 618.52 508.67 623.77 502.94 628.21 496.93 631.53 490.66 633.59 484.35 634.69 477.81 634.47 471.08 632.9 464.33 630.4 457.41 626.65 450.35 621.71 443.28 616.15 436.09 609.67 428.78 602.46 421.47 595.12 414.22 587.61 407.06 580.13 399.89 573.09 392.8 566.4 385.79 560.21 378.78 554.83 371.84 550.1 364.99 546.07 358.12 542.99 351.32 540.59 344.61 538.82 337.87 537.91 331.2 537.49 324.62 537.46 318 538.05 311.46 538.82 305.01 539.65 298.53 540.82 292.15 541.84 285.87 542.61 279.57 543.46 273.39 543.91 267.35 543.87 258.36 543.39 241.32 539.23 233.38 535.49 228.23 532.58 223.36 529.1 218.79 525.07 214.34 520.86 210.22 516.15 206.48 511.01 202.9 505.73 199.72 500.07 196.98 494.08 194.43 488.01 192.35 481.66 190.76 475.08 189.38 468.46 188.5 461.64 188.15 454.67 188.02 447.69 188.41 440.57 189.34 433.34 190.47 426.1 192.09 418.93 194.16 411.82 196.37 404.71 199 397.66 201.99 390.67 205.07 383.65 208.47 376.67 212.17 369.73 215.89 362.74 219.86 355.76 224.05 348.78 228.2 341.74 232.55 334.67 237.06 327.59 241.49 320.43 246.06 313.23 250.76 306.02 255.34 298.73 260.04 291.43 264.85 284.14 269.52 276.81 274.3 269.53 279.18 262.33 283.93 255.16 288.79 248.14 293.75 241.33 298.6 234.66 303.56 228.27 308.65 222.25 313.63 216.48 318.76 211.17 324.03 206.39 329.21 201.99 334.56 198.2 340.08 195.08 345.53 192.42 351.17 190.48 357 189.3 362.78 188.58 368.77 188.61 374.97 189.39 381.14 190.55 387.54 192.37 394.15 194.82 400.76 197.46 407.6 200.6 414.67 204.15" stroke-dasharray="3 4" transform="rotate(32.32, 400, 400)" opacity="0.84"></path><path d="M419.36 215.22C426.11 218.62 432.92 222.19 439.76 225.84 446.61 229.23 453.49 232.59 460.38 235.88 467.27 238.77 474.17 241.54 481.03 244.15 487.89 246.33 494.7 248.37 501.44 250.27 508.14 251.76 514.73 253.17 521.17 254.53 527.54 255.56 533.71 256.62 539.65 257.74 548.24 259.17 563.52 262.72 570.01 265.05 579.86 271.09 588.06 283.71 588.33 289.21 587.62 295.15 583.1 308.64 579.49 316.1 576.88 321.19 573.92 326.5 570.67 332 567.55 337.52 564.26 343.21 560.87 349.04 557.81 354.87 554.77 360.84 551.82 366.92 549.36 373 547.12 379.05 545.15 385.07 543.71 391.09 542.53 397.1 541.6 403.08 541.17 409.1 540.93 415.14 540.86 421.2 541.2 427.34 541.61 433.54 542.03 439.82 542.75 446.23 543.39 452.77 543.89 459.46 544.55 466.31 544.99 473.34 545.15 480.57 545.35 487.99 545.22 495.61 544.7 503.43 544.15 511.42 543.17 519.58 541.76 527.87 540.25 536.24 538.3 544.67 535.9 553.06 533.37 561.39 530.41 569.56 527.02 577.45 523.51 585.06 519.6 592.21 515.31 598.77 510.92 604.81 506.18 610.08 501.11 614.44 493.26 619.36 476.11 622.41 466.92 620.35 460.7 617.79 454.29 614.12 447.71 609.41 441.12 604.17 434.38 598.12 427.5 591.39 420.61 584.56 413.76 577.55 406.95 570.54 400.14 563.88 393.38 557.49 386.67 551.5 379.96 546.18 373.3 541.4 366.71 537.2 360.1 533.81 353.55 531.01 347.07 528.76 340.57 527.29 334.13 526.26 327.77 525.61 321.39 525.55 315.08 525.71 308.86 525.97 302.62 526.61 296.47 527.19 290.44 527.62 281.43 528.34 264.12 528.07 255.9 526.79 247.93 524.84 233.28 518.09 226.7 513.32 220.61 507.84 210.4 494.49 206.4 486.77 204.06 481.43 202.15 475.78 200.71 469.85 199.46 463.88 198.69 457.67 198.42 451.24 198.34 444.8 198.77 438.17 199.7 431.36 200.81 424.55 202.39 417.73 204.39 410.92 206.53 404.1 209.06 397.29 211.95 390.49 214.91 383.67 218.19 376.84 221.76 370.01 225.35 363.16 229.18 356.28 233.24 349.39 237.27 342.45 241.5 335.49 245.88 328.51 250.21 321.48 254.68 314.43 259.27 307.37 263.78 300.29 268.4 293.21 273.12 286.18 277.74 279.16 282.46 272.21 287.27 265.39 291.97 258.65 296.77 252.08 301.67 245.76 306.47 239.6 311.38 233.75 316.4 228.28 321.32 223.09 326.37 218.34 331.55 214.12 336.65 210.26 341.9 206.99 347.29 204.36 355.38 201.37 372.32 199.45 381.21 200.51 387.18 201.77 393.34 203.64 399.69 206.09 406.04 208.7 412.59 211.76 419.35 215.22" stroke-dasharray="2 3" transform="rotate(36.36, 400, 400)" opacity="0.97"></path><path d="M423.26 226.28C429.68 229.58 436.12 233.04 442.56 236.59 449.01 239.91 455.46 243.23 461.89 246.49 474.74 251.96 487.46 256.98 499.78 261.49 511.94 264.5 523.51 267.29 534.13 270.1 544.3 271.98 553.2 274.41 560.5 277.62 569.29 282.62 575.33 298.74 572.39 309.96 569.25 317.98 564.52 327.07 558.55 337.07 555.74 342.08 552.78 347.3 549.72 352.7 546.95 358.1 544.18 363.69 541.46 369.44 539.17 375.19 537.06 380.97 535.16 386.78 533.71 392.6 532.47 398.47 531.43 404.37 530.67 416.27 530.41 428.5 530.39 441.1 531.46 454.09 532.1 467.71 532.01 481.94 532.18 496.69 531.1 512.05 528.61 527.68 525.87 543.38 521.53 558.75 515.65 573.03 509.4 586.1 501.68 596.93 492.66 604.65 483.4 609.73 473 610.86 461.66 607.74 455.96 605.16 450.05 601.6 443.95 597.13 437.85 592.21 431.56 586.57 425.12 580.33 418.68 574 412.23 567.47 405.8 560.92 399.37 554.66 392.96 548.59 386.59 542.82 373.84 533.05 361.2 525.13 348.79 519.17 336.35 515.9 324.11 514.05 312.22 513.04 300.31 513.56 288.77 513.82 277.78 513.27 266.91 512.94 256.69 511.09 247.38 507.51 238.4 503.57 230.5 497.8 223.93 490.32 217.94 482.49 213.45 473.15 210.67 462.54 209.56 457.18 208.9 451.55 208.7 445.65 208.68 439.75 209.13 433.61 210.05 427.24 211.15 420.88 212.68 414.44 214.61 407.97 216.66 401.5 219.09 394.98 221.85 388.43 227.59 375.31 234.49 362 242.3 348.62 250.05 335.16 258.52 321.56 267.52 308.02 276.23 294.49 285.41 281.16 294.94 268.37 304.1 256 313.67 244.58 323.6 234.56 333.22 225.62 343.32 218.59 353.88 213.87 364.25 210.65 375.22 209.9 386.77 211.71 392.52 213.06 398.44 214.96 404.52 217.39 410.59 219.95 416.83 222.93 423.25 226.28" stroke-dasharray="5 1" transform="rotate(40.400000000000006, 400, 400)" opacity="0.50"></path><path d="M426.24 237.35C438.35 243.61 450.44 250.31 462.35 257.01 474.24 262.53 485.88 267.72 497.02 272.48 507.99 275.89 518.29 279.09 527.61 282.23 536.51 284.45 544.17 287.07 550.31 290.29 557.63 295.03 562.02 309.51 559.06 319.54 556.16 326.65 551.88 334.83 546.51 343.97 541.66 353.12 536.41 363.17 531.11 374.04 527.25 384.91 523.97 396.14 521.34 407.65 520.24 419.28 519.53 431.37 519.01 443.87 519.49 456.68 519.63 470.07 519.18 483.94 519.05 498.11 517.88 512.67 515.52 527.22 513.04 541.59 509.17 555.39 503.92 567.91 498.41 579.18 491.55 588.25 483.47 594.39 475.18 598.21 465.78 598.51 455.43 595.07 445.01 589.42 433.73 580.62 421.74 569.27 409.75 557.59 397.66 545.59 385.63 534.18 373.61 524.61 361.64 516.5 349.85 510.01 338.06 505.85 326.45 502.95 315.16 500.91 303.91 500.35 293.02 499.76 282.68 498.65 272.49 497.98 262.95 496.14 254.29 492.91 245.98 489.52 238.69 484.54 232.67 478.02 227.2 471.25 223.13 463.03 220.67 453.5 218.88 443.87 218.75 433.08 220.41 421.27 222.69 409.45 226.54 397.22 231.71 384.76 237.18 372.31 243.76 359.6 251.22 346.77 258.66 333.95 266.82 321.02 275.5 308.22 283.97 295.55 292.9 283.17 302.18 271.43 311.17 260.2 320.53 249.97 330.22 241.16 339.66 233.39 349.51 227.43 359.76 223.64 369.85 221.16 380.44 220.93 391.52 223.01 402.53 226.04 414.11 230.91 426.23 237.34" stroke-dasharray="9 9" transform="rotate(44.44, 400, 400)" opacity="0.34"></path><path d="M428.17 248.41C439.52 254.43 450.74 260.9 461.68 267.43 472.59 272.97 483.14 278.27 493.13 283.23 502.95 286.99 512.03 290.56 520.13 294.06 531.13 298.1 545.57 307.6 548.36 313.94 549.11 318.34 548.23 323.74 545.8 330.16 543.17 336.57 539.34 344 534.55 352.4 530.26 360.8 525.57 370.14 520.75 380.41 517.17 390.68 514 401.43 511.31 412.57 509.93 423.81 508.84 435.56 507.89 447.73 507.84 460.1 507.51 472.98 506.69 486.18 506.24 499.5 504.93 512.98 502.61 526.24 500.28 539.13 496.75 551.27 492.01 562.03 487.11 571.56 480.98 578.97 473.71 583.69 466.3 586.4 457.82 586 448.4 582.35 438.92 576.88 428.58 568.67 417.5 558.2 406.42 547.46 395.16 536.32 383.91 525.57 372.67 516.29 361.43 508.13 350.34 501.28 339.28 496.4 328.37 492.61 317.77 489.62 307.24 488.03 297.07 486.56 287.44 484.81 277.98 483.62 269.16 481.57 261.19 478.43 253.56 475.3 246.91 470.85 241.44 465.03 236.49 459.07 232.85 451.76 230.69 443.19 229.14 434.54 229.13 424.73 230.77 413.84 232.97 402.95 236.63 391.56 241.52 379.86 246.7 368.2 252.94 356.24 260.01 344.17 267.11 332.16 274.91 320.11 283.22 308.23 291.39 296.59 300.01 285.31 308.97 274.74 317.72 264.73 326.82 255.74 336.21 248.15 345.4 241.53 354.96 236.61 364.85 233.67 374.6 231.88 384.78 232.11 395.34 234.41 405.85 237.5 416.81 242.24 428.17 248.41" stroke-dasharray="12 1" transform="rotate(48.48, 400, 400)" opacity="0.49"></path><path d="M428.97 259.48C439.53 265.22 449.86 271.43 459.83 277.76 469.75 283.26 479.24 288.61 488.11 293.71 496.82 297.78 504.77 301.69 511.75 305.51 521.19 310.1 533.17 320.1 535.27 326.3 535.77 330.48 534.87 335.52 532.62 341.47 530.28 347.36 526.9 354.2 522.67 361.98 518.91 369.74 514.74 378.45 510.4 388.12 507.09 397.78 504.05 408 501.35 418.64 499.75 429.35 498.35 440.58 497.02 452.18 496.51 463.89 495.75 475.99 494.59 488.25 493.8 500.5 492.31 512.71 489.98 524.51 487.7 535.84 484.41 546.28 480.08 555.32 475.65 563.2 470.13 569.1 463.59 572.56 456.93 574.31 449.29 573.36 440.75 569.59 432.16 564.35 422.73 556.73 412.56 547.14 402.38 537.31 392 527.04 381.56 516.97 371.15 508.07 360.71 500 350.39 492.94 340.11 487.52 329.97 483 320.13 479.21 310.39 476.68 300.99 474.35 292.11 471.92 283.43 470.11 275.37 467.69 268.11 464.46 261.18 461.36 255.16 457.19 250.26 451.86 245.83 446.47 242.6 439.89 240.74 432.15 239.42 424.35 239.52 415.43 241.12 405.47 243.24 395.5 246.69 385.01 251.28 374.19 256.16 363.42 262.03 352.35 268.68 341.21 275.4 330.18 282.79 319.15 290.68 308.37 298.49 297.86 306.75 287.8 315.33 278.48 323.76 269.73 332.53 262 341.56 255.6 350.44 250.08 359.63 246.14 369.1 243.99 378.46 242.81 388.17 243.44 398.15 245.9 408.11 249 418.41 253.59 428.97 259.48" stroke-dasharray="10 6" transform="rotate(52.52, 400, 400)" opacity="0.15"></path><path d="M428.62 270.54C438.37 276 447.79 281.91 456.79 288 465.74 293.39 474.2 298.73 482.01 303.91 489.68 308.21 496.58 312.4 502.56 316.51 510.61 321.63 520.53 332.3 522.11 338.52 522.44 342.61 521.57 347.44 519.55 353.06 517.51 358.58 514.57 364.96 510.88 372.22 507.61 379.44 503.94 387.57 500.04 396.63 497.01 405.69 494.12 415.29 491.44 425.31 489.69 435.38 488.04 445.89 486.42 456.71 485.5 467.56 484.37 478.67 482.89 489.79 481.79 500.79 480.1 511.59 477.72 521.84 475.44 531.58 472.3 540.37 468.29 547.77 464.23 554.12 459.22 558.66 453.31 561.02 447.32 561.97 440.43 560.59 432.7 556.79 424.94 551.82 416.38 544.82 407.11 536.07 397.84 527.14 388.34 517.73 378.76 508.38 369.21 499.94 359.62 492.07 350.12 484.96 340.68 479.18 331.37 474.11 322.35 469.67 313.43 466.33 304.86 463.24 296.78 460.15 288.9 457.68 281.61 454.82 275.08 451.37 268.86 448.13 263.49 444.05 259.14 439.03 255.22 434.03 252.4 428 250.82 420.96 249.73 413.88 249.92 405.79 251.48 396.73 253.5 387.66 256.73 378.11 261.01 368.25 265.56 358.45 271.03 348.4 277.23 338.31 283.53 328.36 290.47 318.48 297.9 308.9 305.29 299.62 313.11 290.83 321.26 282.81 329.3 275.31 337.66 268.81 346.25 263.57 354.74 259.09 363.51 256.04 372.48 254.6 381.39 253.96 390.57 254.92 399.94 257.48 409.29 260.56 418.88 264.97 428.62 270.54" stroke-dasharray="5 4" transform="rotate(56.56, 400, 400)" opacity="0.58"></path><path d="M427.13 281.6C436.03 286.74 444.55 292.33 452.6 298.13 460.61 303.37 468.09 308.64 474.9 313.82 481.61 318.26 487.56 322.66 492.65 327 499.49 332.59 507.71 343.97 508.91 350.29 508.76 356.77 503.6 372.8 499.17 382.6 496.36 389.36 493.16 396.94 489.68 405.38 486.93 413.81 484.21 422.73 481.59 432 479.74 441.3 477.91 450.96 476.06 460.81 474.82 470.65 473.36 480.6 471.62 490.43 470.23 500.08 468.35 509.4 465.9 518.08 463.58 526.26 460.55 533.46 456.78 539.34 450.72 545.99 434.55 548.55 424.48 543.97 417.48 539.31 409.77 532.91 401.38 525.01 393 516.95 384.39 508.39 375.7 499.79 367.03 491.88 358.32 484.32 349.69 477.31 341.13 471.34 332.69 465.92 324.53 461 316.48 457.01 308.76 453.26 301.51 449.6 294.45 446.51 287.95 443.18 282.15 439.45 276.63 435.97 271.9 431.86 268.1 427.03 264.68 422.26 262.25 416.65 260.95 410.19 260.06 403.72 260.33 396.38 261.84 388.2 263.74 380.02 266.75 371.42 270.7 362.59 274.9 353.8 279.95 344.84 285.69 335.9 291.53 327.1 297.98 318.44 304.89 310.13 311.81 302.11 319.14 294.61 326.78 287.86 334.36 281.6 342.24 276.27 350.32 272.1 358.35 268.57 366.61 266.33 375.03 265.51 383.41 265.33 391.99 266.55 400.69 269.16 409.39 272.18 418.23 276.36 427.13 281.6" stroke-dasharray="8 3" transform="rotate(60.599999999999994, 400, 400)" opacity="0.59"></path><path d="M424.56 292.67C432.6 297.46 440.23 302.7 447.36 308.17 454.46 313.2 461.01 318.31 466.92 323.41 472.74 327.93 477.85 332.43 482.15 336.92 487.95 342.88 494.8 354.89 495.75 361.35 495.63 367.87 491.3 383.36 487.54 392.6 485.15 398.93 482.39 405.98 479.32 413.76 476.84 421.54 474.31 429.7 471.8 438.13 469.9 446.57 467.95 455.25 465.96 464.01 464.45 472.72 462.75 481.42 460.8 489.88 459.17 498.14 457.12 505.98 454.61 513.13 450.76 522.68 440.07 534.99 433.07 536.84 428.17 536.63 422.57 534.73 416.31 531.13 410.04 526.82 403.12 521.03 395.6 513.95 388.09 506.73 380.37 499.03 372.57 491.2 364.8 483.87 356.99 476.73 349.26 469.95 341.6 463.97 334.06 458.37 326.79 453.17 319.62 448.71 312.77 444.47 306.36 440.34 300.13 436.72 294.42 432.96 289.35 428.96 282.47 423.12 273.19 409.02 271.11 400.42 270.42 394.47 270.75 387.82 272.19 380.49 273.97 373.15 276.74 365.51 280.36 357.71 284.2 349.96 288.81 342.12 294.05 334.37 299.41 326.75 305.32 319.32 311.68 312.29 318.07 305.52 324.85 299.27 331.92 293.76 338.96 288.65 346.29 284.42 353.8 281.23 361.28 278.56 368.96 277.02 376.77 276.71 384.55 276.92 392.47 278.32 400.46 280.93 408.45 283.85 416.51 287.79 424.56 292.67" stroke-dasharray="12 1" transform="rotate(64.64, 400, 400)" opacity="0.23"></path><path d="M421.01 303.73C428.19 308.16 434.94 313.01 441.19 318.1 447.41 322.86 453.1 327.76 458.19 332.7 465.38 339.45 476.11 352.43 479.47 358.82 481.87 364.88 482.63 377.99 481.13 385.35 479.98 390.28 478.25 395.72 475.99 401.68 474 407.6 471.64 414.11 468.97 421.2 466.75 428.29 464.42 435.64 462.05 443.15 460.15 450.66 458.16 458.28 456.08 465.88 454.4 473.4 452.53 480.81 450.43 487.9 448.6 494.77 446.43 501.18 443.88 506.9 440.03 514.41 429.91 523.42 423.51 524.25 419.06 523.67 414.02 521.68 408.43 518.27 402.82 514.34 396.66 509.17 390 502.88 383.33 496.49 376.48 489.63 369.58 482.59 362.71 475.9 355.81 469.27 349 462.84 342.25 457.01 335.62 451.42 329.25 446.11 322.97 441.39 316.99 436.83 311.43 432.38 306.02 428.37 301.07 424.29 296.72 420.07 290.82 413.95 282.98 400.13 281.32 392.12 280.8 386.64 281.19 380.62 282.55 374.1 284.19 367.58 286.71 360.87 289.98 354.1 293.45 347.37 297.6 340.65 302.33 334.08 307.17 327.62 312.53 321.41 318.29 315.61 324.1 310.03 330.28 304.98 336.73 300.6 343.18 296.56 349.88 293.31 356.75 290.98 363.62 289.06 370.65 288.11 377.77 288.23 384.89 288.72 392.1 290.24 399.33 292.8 406.57 295.57 413.83 299.23 421.01 303.73" stroke-dasharray="3 11" transform="rotate(68.68, 400, 400)" opacity="0.08"></path><path d="M416.62 314.8C429.26 322.72 440.15 332 448.88 341.68 457.4 350.01 463.53 358.71 466.94 367.61 470.09 375.44 470.63 384.18 468.65 393.97 467 403.39 463.55 414.46 458.61 427.19 455.09 439.92 450.94 453.19 446.43 466.09 443.19 478.68 439.02 490.22 433.79 499.37 429.06 507.2 422.67 511.55 414.56 511.4 406.49 509.27 396.49 502.64 384.79 491.82 373.08 480.68 360.9 468.22 349.06 455.95 337.41 445.34 326.37 435.21 316.76 425.72 307.67 417.57 300.36 409.08 295.61 399.94 291.7 391.15 290.62 380.98 292.91 369.48 296.12 357.98 302.27 346.3 310.55 335.31 319.24 324.71 329.74 315.42 341.25 308.45 352.85 302.5 365.37 299.49 378.13 300.03 390.92 301.66 403.98 306.64 416.62 314.8" stroke-dasharray="7 5" transform="rotate(72.72, 400, 400)" opacity="0.31"></path><path d="M411.57 325.86C422.49 332.99 431.8 341.42 439.17 350.34 446.4 358.31 451.57 366.75 454.45 375.38 457.22 383.22 457.83 391.76 456.34 401.01 455.17 409.97 452.42 420.11 448.25 431.33 445.16 442.54 441.31 453.81 437 464.39 433.64 474.7 429.42 483.76 424.33 490.58 419.67 496.37 413.68 499.18 406.35 498.29 399.09 496.03 390.31 490.11 380.18 480.75 370.06 471.16 359.64 460.25 349.6 449.22 339.71 439.32 330.43 429.57 322.43 420.27 314.85 411.96 308.84 403.47 305.03 394.71 301.88 386.25 301.14 376.96 303.26 366.94 306.12 356.93 311.5 347.16 318.71 338.29 326.29 329.7 335.47 322.46 345.56 317.33 355.77 312.93 366.79 311.05 377.98 312.13 389.23 313.94 400.64 318.55 411.57 325.86" stroke-dasharray="4 1" transform="rotate(76.76, 400, 400)" opacity="0.96"></path><path d="M406.05 336.92C415.3 343.2 423.11 350.68 429.25 358.7 435.32 366.09 439.66 374 442.13 382.1 444.56 389.66 445.26 397.76 444.22 406.28 443.46 414.6 441.33 423.68 437.9 433.33 435.24 442.97 431.76 452.28 427.77 460.68 424.46 468.86 420.36 475.73 415.54 480.57 411.07 484.7 405.54 486.32 399.03 484.99 392.58 482.75 384.96 477.61 376.37 469.69 367.78 461.59 359.06 452.26 350.76 442.62 342.57 433.69 334.97 424.67 328.5 415.93 322.35 407.87 317.55 399.71 314.6 391.53 312.14 383.59 311.69 375.24 313.62 366.66 316.11 358.07 320.7 350.07 326.84 343.09 333.28 336.3 341.1 330.84 349.71 327.24 358.45 324.11 367.88 323.1 377.45 324.5 387.08 326.36 396.81 330.51 406.05 336.92" stroke-dasharray="5 2" transform="rotate(80.80000000000001, 400, 400)" opacity="0.70"></path><path d="M400.3 347.99C407.9 353.35 414.3 359.79 419.33 366.77 424.31 373.36 427.92 380.47 430.04 387.78 432.18 394.75 432.93 402.13 432.29 409.7 431.87 417.15 430.28 425.02 427.54 433.06 425.32 441.09 422.29 448.51 418.72 454.94 413.72 463.71 400.79 472.66 392.65 471.53 387.05 469.46 380.61 465.14 373.5 458.63 366.39 451.99 359.31 444.25 352.66 436.11 346.09 428.37 340.07 420.39 335.03 412.55 330.21 405.13 326.52 397.65 324.33 390.31 322.49 383.12 322.27 375.82 323.98 368.65 326.08 361.47 329.88 355.07 334.94 349.74 340.24 344.51 346.68 340.53 353.78 338.13 361 336.01 368.8 335.61 376.71 337.13 384.68 338.9 392.7 342.52 400.3 347.99" stroke-dasharray="3 1" transform="rotate(84.84, 400, 400)" opacity="0.42"></path><path d="M394.53 359.05C406.52 367.7 414.71 379.81 418.29 392.46 421.98 404.38 421.7 417.72 417.18 430.53 413.98 443.33 407.74 453.02 399.93 457.41 392.78 460.74 383.01 457.66 371.69 447.56 360.36 437.17 349.69 423.43 342.06 409.96 334.99 397.39 331.74 384.34 334.33 372.77 337.98 361.2 346.78 353.09 357.85 349.92 369.3 347.28 382.54 350.15 394.53 359.05" stroke-dasharray="9 0" transform="rotate(88.88, 400, 400)" opacity="0.60"></path><path d="M388.98 370.12C397.85 376.8 404.03 386.27 406.92 396.22 409.92 405.86 410.02 416.39 406.83 425.92 404.35 435.44 399.34 442.04 393.07 444.56 387.18 446.57 379.47 444.01 371 436.5 362.52 428.82 354.88 418.41 349.63 407.95 344.68 397.9 342.58 387.53 344.69 378.76 347.41 369.98 353.87 364.32 362 362.49 370.38 360.86 380.11 363.28 388.98 370.12" stroke-dasharray="8 1" transform="rotate(92.92, 400, 400)" opacity="0.42"></path><path d="M383.87 381.18C395.55 390.19 400.77 406.96 396.47 419.54 393.42 432.1 382.78 435.17 371.47 425.43 360.15 415.41 352.3 398.04 355.04 386.19 358.91 374.32 372.18 371.9 383.87 381.18" stroke-dasharray="3 8" transform="rotate(96.96, 400, 400)" opacity="0.56"></path></g></svg>